<svg xmlns="http://www.w3.org/2000/svg" xmlns:xlink="http://www.w3.org/1999/xlink" width="136" zoomAndPan="magnify" viewBox="0 0 102 37.92" height="40" preserveAspectRatio="xMidYMid meet" version="1.0"><defs><g/><clipPath id="adba013d6f"><path d="M 11 0 L 91 0 L 91 29.9375 L 11 29.9375 Z M 11 0 " clip-rule="nonzero"/></clipPath><clipPath id="740fce09bb"><path d="M 2 0 L 32 0 L 32 29.9375 L 2 29.9375 Z M 2 0 " clip-rule="nonzero"/></clipPath><clipPath id="baa3637ef9"><path d="M 33 0 L 79.636719 0 L 79.636719 28 L 33 28 Z M 33 0 " clip-rule="nonzero"/></clipPath><clipPath id="17f45833ae"><rect x="0" width="47" y="0" height="28"/></clipPath><clipPath id="65d8e7f6eb"><rect x="0" width="80" y="0" height="30"/></clipPath></defs><g clip-path="url(#adba013d6f)"><g transform="matrix(1, 0, 0, 1, 11, 0.000000000000005766)"><g clip-path="url(#65d8e7f6eb)"><path fill="#ffffff" d="M 17.777344 1.882812 C 18.636719 1.914062 19.484375 2.03125 20.320312 2.234375 C 21.15625 2.433594 21.964844 2.714844 22.746094 3.074219 C 23.527344 3.433594 24.265625 3.867188 24.960938 4.371094 C 25.65625 4.878906 26.296875 5.445312 26.878906 6.078125 C 27.464844 6.710938 27.980469 7.390625 28.429688 8.125 C 28.878906 8.859375 29.253906 9.628906 29.550781 10.4375 C 29.847656 11.242188 30.0625 12.070312 30.199219 12.921875 C 30.332031 13.769531 30.382812 14.625 30.347656 15.484375 C 30.316406 16.34375 30.199219 17.191406 29.996094 18.027344 C 29.796875 18.863281 29.515625 19.671875 29.15625 20.453125 C 28.796875 21.234375 28.363281 21.972656 27.859375 22.667969 C 27.351562 23.363281 26.785156 24.003906 26.152344 24.585938 C 25.519531 25.171875 24.839844 25.6875 24.105469 26.136719 C 23.371094 26.585938 22.601562 26.957031 21.792969 27.257812 C 20.988281 27.554688 20.160156 27.769531 19.308594 27.90625 C 18.460938 28.039062 17.605469 28.089844 16.746094 28.054688 C 15.886719 28.023438 15.039062 27.90625 14.203125 27.703125 C 13.367188 27.503906 12.558594 27.222656 11.777344 26.863281 C 10.996094 26.503906 10.257812 26.070312 9.5625 25.5625 C 8.867188 25.058594 8.226562 24.488281 7.644531 23.859375 C 7.058594 23.226562 6.542969 22.542969 6.09375 21.8125 C 5.644531 21.078125 5.273438 20.308594 4.972656 19.5 C 4.675781 18.695312 4.460938 17.867188 4.328125 17.015625 C 4.191406 16.167969 4.140625 15.3125 4.175781 14.453125 C 4.210938 13.59375 4.328125 12.746094 4.527344 11.910156 C 4.726562 11.074219 5.007812 10.265625 5.367188 9.484375 C 5.730469 8.703125 6.160156 7.964844 6.667969 7.269531 C 7.171875 6.574219 7.742188 5.933594 8.371094 5.351562 C 9.003906 4.765625 9.6875 4.25 10.417969 3.800781 C 11.152344 3.351562 11.921875 2.976562 12.730469 2.679688 C 13.535156 2.382812 14.363281 2.167969 15.214844 2.03125 C 16.0625 1.898438 16.917969 1.847656 17.777344 1.882812 Z M 17.777344 1.882812 " fill-opacity="1" fill-rule="nonzero"/><g clip-path="url(#740fce09bb)"><path fill="#1a1a1a" d="M 31.046875 19.515625 C 28.539062 27.117188 20.316406 31.257812 12.714844 28.75 C 5.117188 26.246094 0.972656 18.023438 3.480469 10.421875 C 5.984375 2.820312 14.207031 -1.320312 21.808594 1.183594 C 29.410156 3.691406 33.550781 11.914062 31.046875 19.515625 Z M 6.171875 11.308594 C 4.152344 17.425781 7.488281 24.042969 13.601562 26.0625 C 19.71875 28.078125 26.335938 24.742188 28.355469 18.628906 C 30.371094 12.511719 27.039062 5.894531 20.921875 3.875 C 14.804688 1.859375 8.1875 5.191406 6.171875 11.308594 Z M 6.171875 11.308594 " fill-opacity="1" fill-rule="nonzero"/></g><path fill="#1a1a1a" d="M 14.472656 8.507812 C 14.816406 8.511719 15.167969 8.566406 15.515625 8.679688 C 17.304688 9.269531 18.273438 11.199219 17.683594 12.984375 C 17.09375 14.773438 15.167969 15.746094 13.378906 15.15625 C 11.863281 14.65625 10.933594 13.191406 11.046875 11.667969 C 10.863281 12.015625 10.703125 12.378906 10.578125 12.761719 C 9.359375 16.457031 11.367188 20.433594 15.058594 21.652344 C 18.75 22.871094 22.730469 20.863281 23.945312 17.171875 C 25.164062 13.480469 23.160156 9.503906 19.46875 8.285156 C 17.761719 7.722656 16 7.847656 14.472656 8.507812 Z M 14.472656 8.507812 " fill-opacity="1" fill-rule="nonzero"/><g clip-path="url(#baa3637ef9)"><g transform="matrix(1, 0, 0, 1, 33, 0.000000000000005773)"><g clip-path="url(#17f45833ae)"><g fill="#ffffff" fill-opacity="1"><g transform="translate(0.549482, 21.302314)"><g><path d="M 14.015625 -6.796875 C 14.015625 -4.554688 13.457031 -2.832031 12.34375 -1.625 C 11.226562 -0.414062 9.632812 0.1875 7.5625 0.1875 C 5.476562 0.1875 3.878906 -0.414062 2.765625 -1.625 C 1.660156 -2.832031 1.109375 -4.5625 1.109375 -6.8125 C 1.109375 -9.070312 1.664062 -10.796875 2.78125 -11.984375 C 3.894531 -13.179688 5.492188 -13.78125 7.578125 -13.78125 C 9.660156 -13.78125 11.253906 -13.175781 12.359375 -11.96875 C 13.460938 -10.769531 14.015625 -9.046875 14.015625 -6.796875 Z M 4.125 -6.796875 C 4.125 -5.285156 4.410156 -4.144531 4.984375 -3.375 C 5.554688 -2.613281 6.414062 -2.234375 7.5625 -2.234375 C 9.851562 -2.234375 11 -3.753906 11 -6.796875 C 11 -9.859375 9.859375 -11.390625 7.578125 -11.390625 C 6.429688 -11.390625 5.566406 -11.003906 4.984375 -10.234375 C 4.410156 -9.460938 4.125 -8.316406 4.125 -6.796875 Z M 4.125 -6.796875 "/></g></g><g transform="translate(15.672883, 21.302314)"><g><path d="M 7.1875 0.1875 C 5.96875 0.1875 5.007812 -0.253906 4.3125 -1.140625 L 4.171875 -1.140625 C 4.265625 -0.273438 4.3125 0.222656 4.3125 0.359375 L 4.3125 4.5625 L 1.484375 4.5625 L 1.484375 -10.375 L 3.78125 -10.375 L 4.1875 -9.03125 L 4.3125 -9.03125 C 4.976562 -10.050781 5.957031 -10.5625 7.25 -10.5625 C 8.476562 -10.5625 9.4375 -10.085938 10.125 -9.140625 C 10.820312 -8.203125 11.171875 -6.890625 11.171875 -5.203125 C 11.171875 -4.097656 11.007812 -3.132812 10.6875 -2.3125 C 10.363281 -1.5 9.898438 -0.878906 9.296875 -0.453125 C 8.691406 -0.0234375 7.988281 0.1875 7.1875 0.1875 Z M 6.34375 -8.296875 C 5.644531 -8.296875 5.132812 -8.082031 4.8125 -7.65625 C 4.488281 -7.226562 4.320312 -6.519531 4.3125 -5.53125 L 4.3125 -5.21875 C 4.3125 -4.101562 4.476562 -3.304688 4.8125 -2.828125 C 5.144531 -2.347656 5.671875 -2.109375 6.390625 -2.109375 C 7.648438 -2.109375 8.28125 -3.148438 8.28125 -5.234375 C 8.28125 -6.253906 8.125 -7.019531 7.8125 -7.53125 C 7.5 -8.039062 7.007812 -8.296875 6.34375 -8.296875 Z M 6.34375 -8.296875 "/></g></g><g transform="translate(27.697379, 21.302314)"><g><path d="M 1.703125 0 L 1.703125 -13.5625 L 4.578125 -13.5625 L 4.578125 0 Z M 1.703125 0 "/></g></g><g transform="translate(33.987972, 21.302314)"><g><path d="M 4.765625 0.1875 C 3.546875 0.1875 2.585938 -0.285156 1.890625 -1.234375 C 1.203125 -2.179688 0.859375 -3.492188 0.859375 -5.171875 C 0.859375 -6.867188 1.210938 -8.191406 1.921875 -9.140625 C 2.628906 -10.085938 3.601562 -10.5625 4.84375 -10.5625 C 6.144531 -10.5625 7.140625 -10.054688 7.828125 -9.046875 L 7.921875 -9.046875 C 7.773438 -9.816406 7.703125 -10.503906 7.703125 -11.109375 L 7.703125 -14.4375 L 10.546875 -14.4375 L 10.546875 0 L 8.375 0 L 7.828125 -1.34375 L 7.703125 -1.34375 C 7.066406 -0.320312 6.085938 0.1875 4.765625 0.1875 Z M 5.765625 -2.0625 C 6.484375 -2.0625 7.007812 -2.269531 7.34375 -2.6875 C 7.6875 -3.113281 7.875 -3.832031 7.90625 -4.84375 L 7.90625 -5.15625 C 7.90625 -6.257812 7.734375 -7.050781 7.390625 -7.53125 C 7.046875 -8.019531 6.488281 -8.265625 5.71875 -8.265625 C 5.082031 -8.265625 4.585938 -7.992188 4.234375 -7.453125 C 3.890625 -6.921875 3.71875 -6.144531 3.71875 -5.125 C 3.71875 -4.101562 3.894531 -3.335938 4.25 -2.828125 C 4.601562 -2.316406 5.109375 -2.0625 5.765625 -2.0625 Z M 5.765625 -2.0625 "/></g></g></g></g></g></g></g></g></g></svg>