<svg xmlns="http://www.w3.org/2000/svg" xmlns:xlink="http://www.w3.org/1999/xlink" width="136" zoomAndPan="magnify" viewBox="0 0 102 37.92" height="40" preserveAspectRatio="xMidYMid meet" version="1.0"><defs><g/><clipPath id="e1ae088f13"><path d="M 13 0 L 91 0 L 91 29.9375 L 13 29.9375 Z M 13 0 " clip-rule="nonzero"/></clipPath><clipPath id="ec5fecef06"><path d="M 0.28125 0 L 30 0 L 30 29.9375 L 0.28125 29.9375 Z M 0.28125 0 " clip-rule="nonzero"/></clipPath><clipPath id="78d723fa6f"><path d="M 31 0 L 77.636719 0 L 77.636719 28 L 31 28 Z M 31 0 " clip-rule="nonzero"/></clipPath><clipPath id="e4e6645d8c"><rect x="0" width="47" y="0" height="28"/></clipPath><clipPath id="2575f35d2f"><rect x="0" width="78" y="0" height="30"/></clipPath></defs><g clip-path="url(#e1ae088f13)"><g transform="matrix(1, 0, 0, 1, 13, 0.000000000000005766)"><g clip-path="url(#2575f35d2f)"><path fill="#ffffff" d="M 15.789062 1.886719 C 16.644531 1.921875 17.492188 2.039062 18.328125 2.238281 C 19.164062 2.441406 19.972656 2.71875 20.753906 3.078125 C 21.535156 3.441406 22.273438 3.871094 22.96875 4.378906 C 23.664062 4.882812 24.304688 5.453125 24.886719 6.082031 C 25.46875 6.714844 25.984375 7.394531 26.433594 8.128906 C 26.882812 8.863281 27.257812 9.632812 27.554688 10.4375 C 27.851562 11.246094 28.070312 12.070312 28.203125 12.921875 C 28.335938 13.769531 28.386719 14.625 28.355469 15.484375 C 28.320312 16.34375 28.203125 17.1875 28.003906 18.023438 C 27.800781 18.859375 27.519531 19.667969 27.160156 20.449219 C 26.800781 21.230469 26.367188 21.96875 25.863281 22.664062 C 25.359375 23.359375 24.789062 24 24.160156 24.582031 C 23.527344 25.164062 22.84375 25.683594 22.113281 26.132812 C 21.378906 26.578125 20.609375 26.953125 19.804688 27.25 C 18.996094 27.546875 18.167969 27.765625 17.320312 27.898438 C 16.472656 28.03125 15.617188 28.082031 14.757812 28.050781 C 13.898438 28.015625 13.050781 27.898438 12.214844 27.699219 C 11.378906 27.496094 10.570312 27.21875 9.792969 26.855469 C 9.011719 26.496094 8.273438 26.0625 7.578125 25.558594 C 6.882812 25.054688 6.242188 24.484375 5.660156 23.855469 C 5.074219 23.222656 4.558594 22.539062 4.109375 21.808594 C 3.660156 21.074219 3.289062 20.304688 2.988281 19.5 C 2.691406 18.691406 2.476562 17.863281 2.34375 17.015625 C 2.207031 16.167969 2.15625 15.3125 2.191406 14.453125 C 2.226562 13.59375 2.34375 12.746094 2.542969 11.910156 C 2.742188 11.074219 3.023438 10.269531 3.382812 9.488281 C 3.742188 8.707031 4.175781 7.96875 4.683594 7.273438 C 5.1875 6.578125 5.753906 5.9375 6.386719 5.355469 C 7.019531 4.769531 7.699219 4.253906 8.433594 3.804688 C 9.164062 3.355469 9.9375 2.984375 10.742188 2.6875 C 11.546875 2.386719 12.375 2.171875 13.226562 2.039062 C 14.074219 1.902344 14.929688 1.851562 15.789062 1.886719 Z M 15.789062 1.886719 " fill-opacity="1" fill-rule="nonzero"/><g clip-path="url(#ec5fecef06)"><path fill="#ff3131" d="M 29.050781 19.511719 C 26.542969 27.109375 18.324219 31.25 10.726562 28.746094 C 3.132812 26.238281 -1.011719 18.019531 1.496094 10.421875 C 4 2.828125 12.21875 -1.316406 19.816406 1.191406 C 27.414062 3.699219 31.554688 11.917969 29.050781 19.511719 Z M 4.183594 11.3125 C 2.167969 17.425781 5.5 24.039062 11.617188 26.054688 C 17.730469 28.074219 24.34375 24.738281 26.359375 18.625 C 28.375 12.511719 25.042969 5.898438 18.929688 3.882812 C 12.816406 1.863281 6.203125 5.199219 4.183594 11.3125 Z M 4.183594 11.3125 " fill-opacity="1" fill-rule="nonzero"/></g><path fill="#ff3131" d="M 12.484375 8.511719 C 12.828125 8.515625 13.179688 8.570312 13.527344 8.683594 C 15.3125 9.273438 16.285156 11.199219 15.695312 12.988281 C 15.105469 14.773438 13.179688 15.746094 11.390625 15.15625 C 9.875 14.65625 8.945312 13.191406 9.058594 11.667969 C 8.875 12.015625 8.71875 12.378906 8.589844 12.765625 C 7.375 16.453125 9.378906 20.433594 13.070312 21.648438 C 16.757812 22.867188 20.738281 20.863281 21.953125 17.171875 C 23.171875 13.484375 21.167969 9.503906 17.476562 8.289062 C 15.773438 7.726562 14.007812 7.851562 12.484375 8.511719 Z M 12.484375 8.511719 " fill-opacity="1" fill-rule="nonzero"/><g clip-path="url(#78d723fa6f)"><g transform="matrix(1, 0, 0, 1, 31, 0.000000000000005773)"><g clip-path="url(#e4e6645d8c)"><g fill="#ff3131" fill-opacity="1"><g transform="translate(0.552402, 21.299449)"><g><path d="M 14.015625 -6.796875 C 14.015625 -4.554688 13.457031 -2.832031 12.34375 -1.625 C 11.226562 -0.414062 9.632812 0.1875 7.5625 0.1875 C 5.476562 0.1875 3.878906 -0.414062 2.765625 -1.625 C 1.660156 -2.832031 1.109375 -4.5625 1.109375 -6.8125 C 1.109375 -9.070312 1.664062 -10.796875 2.78125 -11.984375 C 3.894531 -13.179688 5.492188 -13.78125 7.578125 -13.78125 C 9.660156 -13.78125 11.253906 -13.175781 12.359375 -11.96875 C 13.460938 -10.769531 14.015625 -9.046875 14.015625 -6.796875 Z M 4.125 -6.796875 C 4.125 -5.285156 4.410156 -4.144531 4.984375 -3.375 C 5.554688 -2.613281 6.414062 -2.234375 7.5625 -2.234375 C 9.851562 -2.234375 11 -3.753906 11 -6.796875 C 11 -9.859375 9.859375 -11.390625 7.578125 -11.390625 C 6.429688 -11.390625 5.566406 -11.003906 4.984375 -10.234375 C 4.410156 -9.460938 4.125 -8.316406 4.125 -6.796875 Z M 4.125 -6.796875 "/></g></g><g transform="translate(15.668964, 21.299449)"><g><path d="M 7.1875 0.1875 C 5.96875 0.1875 5.007812 -0.253906 4.3125 -1.140625 L 4.171875 -1.140625 C 4.265625 -0.273438 4.3125 0.222656 4.3125 0.359375 L 4.3125 4.5625 L 1.484375 4.5625 L 1.484375 -10.375 L 3.78125 -10.375 L 4.1875 -9.03125 L 4.3125 -9.03125 C 4.976562 -10.050781 5.957031 -10.5625 7.25 -10.5625 C 8.476562 -10.5625 9.4375 -10.085938 10.125 -9.140625 C 10.820312 -8.203125 11.171875 -6.890625 11.171875 -5.203125 C 11.171875 -4.097656 11.007812 -3.132812 10.6875 -2.3125 C 10.363281 -1.5 9.898438 -0.878906 9.296875 -0.453125 C 8.691406 -0.0234375 7.988281 0.1875 7.1875 0.1875 Z M 6.34375 -8.296875 C 5.644531 -8.296875 5.132812 -8.082031 4.8125 -7.65625 C 4.488281 -7.226562 4.320312 -6.519531 4.3125 -5.53125 L 4.3125 -5.21875 C 4.3125 -4.101562 4.476562 -3.304688 4.8125 -2.828125 C 5.144531 -2.347656 5.671875 -2.109375 6.390625 -2.109375 C 7.648438 -2.109375 8.28125 -3.148438 8.28125 -5.234375 C 8.28125 -6.253906 8.125 -7.019531 7.8125 -7.53125 C 7.5 -8.039062 7.007812 -8.296875 6.34375 -8.296875 Z M 6.34375 -8.296875 "/></g></g><g transform="translate(27.688023, 21.299449)"><g><path d="M 1.703125 0 L 1.703125 -13.5625 L 4.578125 -13.5625 L 4.578125 0 Z M 1.703125 0 "/></g></g><g transform="translate(33.975771, 21.299449)"><g><path d="M 4.765625 0.1875 C 3.546875 0.1875 2.585938 -0.285156 1.890625 -1.234375 C 1.203125 -2.179688 0.859375 -3.492188 0.859375 -5.171875 C 0.859375 -6.867188 1.210938 -8.191406 1.921875 -9.140625 C 2.628906 -10.085938 3.601562 -10.5625 4.84375 -10.5625 C 6.144531 -10.5625 7.140625 -10.054688 7.828125 -9.046875 L 7.921875 -9.046875 C 7.773438 -9.816406 7.703125 -10.503906 7.703125 -11.109375 L 7.703125 -14.4375 L 10.546875 -14.4375 L 10.546875 0 L 8.375 0 L 7.828125 -1.34375 L 7.703125 -1.34375 C 7.066406 -0.320312 6.085938 0.1875 4.765625 0.1875 Z M 5.765625 -2.0625 C 6.484375 -2.0625 7.007812 -2.269531 7.34375 -2.6875 C 7.6875 -3.113281 7.875 -3.832031 7.90625 -4.84375 L 7.90625 -5.15625 C 7.90625 -6.257812 7.734375 -7.050781 7.390625 -7.53125 C 7.046875 -8.019531 6.488281 -8.265625 5.71875 -8.265625 C 5.082031 -8.265625 4.585938 -7.992188 4.234375 -7.453125 C 3.890625 -6.921875 3.71875 -6.144531 3.71875 -5.125 C 3.71875 -4.101562 3.894531 -3.335938 4.25 -2.828125 C 4.601562 -2.316406 5.109375 -2.0625 5.765625 -2.0625 Z M 5.765625 -2.0625 "/></g></g></g></g></g></g></g></g></g></svg>